<?xml version="1.0" encoding="utf-8"?>
<!-- Generator: Adobe Illustrator 18.0.0, SVG Export Plug-In . SVG Version: 6.00 Build 0)  -->
<!DOCTYPE svg PUBLIC "-//W3C//DTD SVG 1.1//EN" "http://www.w3.org/Graphics/SVG/1.1/DTD/svg11.dtd">
<svg version="1.1" id="Layer_1" xmlns="http://www.w3.org/2000/svg" xmlns:xlink="http://www.w3.org/1999/xlink" x="0px" y="0px"
	 viewBox="439.6 624.9 445.9 445.9" enable-background="new 439.6 624.9 445.9 445.9" xml:space="preserve">
<g id="Calque_1">
</g>
<g id="Layer_2">
</g>
<g>
	
		<circle fill="none" stroke="#27AAE1" stroke-linecap="round" stroke-linejoin="round" stroke-miterlimit="10" cx="662.6" cy="847.8" r="194.2"/>
	<path fill="none" stroke="#27AAE1" stroke-linecap="round" stroke-linejoin="round" stroke-miterlimit="10" d="M885,847.8
		c0-28.6-5.4-55.9-15.2-81c-0.1-0.5-0.2-1.1-0.4-1.6L843.3,679c-1.7-5.7-6.2-10.2-11.9-11.9L745.1,641c-0.5-0.2-1-0.3-1.6-0.4
		c-25.1-9.8-52.4-15.2-81-15.2c-28.6,0-55.9,5.4-81,15.2c-0.5,0.1-1.1,0.2-1.6,0.4l-86.2,26.1c-5.7,1.7-10.2,6.2-11.9,11.9
		l-26.1,86.2c-0.2,0.5-0.3,1.1-0.4,1.6c-9.8,25.1-15.2,52.4-15.2,81c0,28.6,5.4,55.9,15.2,81c0.1,0.5,0.2,1.1,0.4,1.6l26.1,86.2
		c1.7,5.7,6.2,10.2,11.9,11.9l86.2,26.1c0.5,0.2,1,0.3,1.6,0.4c25.1,9.8,52.4,15.2,81,15.2c28.6,0,55.9-5.4,81-15.2
		c0.5-0.1,1.1-0.2,1.6-0.4l86.2-26.1c5.7-1.7,10.2-6.2,11.9-11.9l26.1-86.2c0.2-0.5,0.3-1,0.4-1.6C879.6,903.7,885,876.4,885,847.8z
		"/>
	<g>
		
			<circle fill="none" stroke="#27AAE1" stroke-linecap="round" stroke-linejoin="round" stroke-miterlimit="10" cx="505.8" cy="691" r="4.7"/>
		
			<circle fill="none" stroke="#27AAE1" stroke-linecap="round" stroke-linejoin="round" stroke-miterlimit="10" cx="819.4" cy="691" r="4.7"/>
		
			<circle fill="none" stroke="#27AAE1" stroke-linecap="round" stroke-linejoin="round" stroke-miterlimit="10" cx="819.4" cy="1004.6" r="4.7"/>
		
			<circle fill="none" stroke="#27AAE1" stroke-linecap="round" stroke-linejoin="round" stroke-miterlimit="10" cx="505.8" cy="1004.6" r="4.7"/>
	</g>
</g>
</svg>
